<svg width="24" height="24" viewBox="0 0 24 24" fill="none" xmlns="http://www.w3.org/2000/svg">
<path d="M20.0708 7.41413L9.7293 17.7556C9.63771 17.8479 9.51303 17.8998 9.38296 17.8998C9.25289 17.8998 9.12821 17.8479 9.03662 17.7556L3.77808 12.497C3.68573 12.4055 3.63379 12.2808 3.63379 12.1507C3.63379 12.0206 3.68573 11.8959 3.77808 11.8043L4.46101 11.1214C4.5526 11.0291 4.67728 10.9771 4.80735 10.9771C4.93742 10.9771 5.0621 11.0291 5.15369 11.1214L9.37808 15.3458L18.6952 6.02876C18.8881 5.84165 19.1949 5.84165 19.3878 6.02876L20.0708 6.72144C20.1632 6.81304 20.2151 6.93772 20.2151 7.06779C20.2151 7.19785 20.1632 7.32253 20.0708 7.41413Z" fill="#D6D6D6"/>
</svg>
